<svg width="1200" height="630" viewBox="0 0 1200 630" fill="none" xmlns="http://www.w3.org/2000/svg">
  <rect width="1200" height="630" fill="#FAF9F6"/>
  <rect x="40" y="40" width="1120" height="550" rx="12" fill="none" stroke="#0F0F0F" strokeWidth="1.5"/>

  <!-- Decorative star -->
  <path d="M600 80 L610 135 L670 135 L622 168 L640 225 L600 192 L560 225 L578 168 L530 135 L590 135 Z" fill="#E5D9F2" stroke="#0F0F0F" strokeWidth="1.5" strokeLinejoin="round"/>

  <!-- Title -->
  <text x="600" y="300" text-anchor="middle" font-family="'Playfair Display', Georgia, serif" font-size="64" font-weight="700" fill="#0F0F0F" letter-spacing="-0.5">
    AI Chat Exporter
  </text>

  <!-- Description -->
  <text x="600" y="360" text-anchor="middle" font-family="'Inter', system-ui, sans-serif" font-size="22" fill="#0F0F0F" opacity="0.7">
    Save ChatGPT, Gemini &amp; AI Studio conversations
  </text>

  <!-- Format badges -->
  <rect x="390" y="400" width="100" height="36" rx="8" fill="#E5D9F2" stroke="#0F0F0F" strokeWidth="1.5"/>
  <text x="440" y="424" text-anchor="middle" font-family="'JetBrains Mono', monospace" font-size="14" font-weight="600" fill="#0F0F0F">PDF</text>

  <rect x="505" y="400" width="110" height="36" rx="8" fill="#D1E9D2" stroke="#0F0F0F" strokeWidth="1.5"/>
  <text x="560" y="424" text-anchor="middle" font-family="'JetBrains Mono', monospace" font-size="14" font-weight="600" fill="#0F0F0F">Markdown</text>

  <rect x="630" y="400" width="100" height="36" rx="8" fill="#E5D9F2" stroke="#0F0F0F" strokeWidth="1.5"/>
  <text x="680" y="424" text-anchor="middle" font-family="'JetBrains Mono', monospace" font-size="14" font-weight="600" fill="#0F0F0F">JSON</text>

  <!-- Privacy badge -->
  <rect x="420" y="460" width="360" height="34" rx="8" fill="white" stroke="#0F0F0F" strokeWidth="1.2"/>
  <text x="600" y="482" text-anchor="middle" font-family="'Inter', system-ui, sans-serif" font-size="13" fill="#0F0F0F" opacity="0.6">
    ✦ 100% local · No servers · No account required
  </text>

  <!-- Footer -->
  <text x="600" y="540" text-anchor="middle" font-family="'Inter', system-ui, sans-serif" font-size="13" fill="#0F0F0F" opacity="0.35">
    aichatexporter.github.io
  </text>
</svg>
